<?xml version="1.0" standalone="no"?><svg xmlns="http://www.w3.org/2000/svg" viewBox="0 0 1440 320"><path fill="#273036" fill-opacity="1" d="M0,160L13.3,154.7C26.7,149,53,139,80,149.3C106.7,160,133,192,160,213.3C186.7,235,213,245,240,229.3C266.7,213,293,171,320,144C346.7,117,373,107,400,101.3C426.7,96,453,96,480,122.7C506.7,149,533,203,560,202.7C586.7,203,613,149,640,149.3C666.7,149,693,203,720,213.3C746.7,224,773,192,800,165.3C826.7,139,853,117,880,122.7C906.7,128,933,160,960,192C986.7,224,1013,256,1040,250.7C1066.7,245,1093,203,1120,186.7C1146.7,171,1173,181,1200,176C1226.7,171,1253,149,1280,154.7C1306.7,160,1333,192,1360,176C1386.7,160,1413,96,1427,64L1440,32L1440,320L1426.7,320C1413.3,320,1387,320,1360,320C1333.3,320,1307,320,1280,320C1253.3,320,1227,320,1200,320C1173.3,320,1147,320,1120,320C1093.3,320,1067,320,1040,320C1013.3,320,987,320,960,320C933.3,320,907,320,880,320C853.3,320,827,320,800,320C773.3,320,747,320,720,320C693.3,320,667,320,640,320C613.3,320,587,320,560,320C533.3,320,507,320,480,320C453.3,320,427,320,400,320C373.3,320,347,320,320,320C293.3,320,267,320,240,320C213.3,320,187,320,160,320C133.3,320,107,320,80,320C53.3,320,27,320,13,320L0,320Z"></path></svg>